name D:\school\WTK\thesis\model\3dpredictsim\Results\MidTarsalJoint\Fal_s1_bCst_PF_Natali2010_ls150_MT_k500_d020_MTP_T5_ig23.mot
datacolumns 128
datarows 4
range 0.56167414 0.59537459
endheader
time	pelvis_tilt	pelvis_list	pelvis_rotation	pelvis_tx	pelvis_ty	pelvis_tz	hip_flexion_l	hip_adduction_l	hip_rotation_l	hip_flexion_r	hip_adduction_r	hip_rotation_r	knee_angle_l	knee_angle_r	ankle_angle_l	ankle_angle_r	subtalar_angle_l	subtalar_angle_r	mtj_angle_l	mtj_angle_r	mtp_angle_l	mtp_angle_r	lumbar_extension	lumbar_bending	lumbar_rotation	arm_flex_l	arm_add_l	arm_rot_l	arm_flex_r	arm_add_r	arm_rot_r	elbow_flex_l	elbow_flex_r	pro_sup_l	pro_sup_r	glut_med1_l/activation	glut_med2_l/activation	glut_med3_l/activation	glut_min1_l/activation	glut_min2_l/activation	glut_min3_l/activation	semimem_l/activation	semiten_l/activation	bifemlh_l/activation	bifemsh_l/activation	sar_l/activation	add_long_l/activation	add_brev_l/activation	add_mag1_l/activation	add_mag2_l/activation	add_mag3_l/activation	tfl_l/activation	pect_l/activation	grac_l/activation	glut_max1_l/activation	glut_max2_l/activation	glut_max3_l/activation	iliacus_l/activation	psoas_l/activation	quad_fem_l/activation	gem_l/activation	peri_l/activation	rect_fem_l/activation	vas_med_l/activation	vas_int_l/activation	vas_lat_l/activation	med_gas_l/activation	lat_gas_l/activation	soleus_l/activation	tib_post_l/activation	flex_dig_l/activation	flex_hal_l/activation	tib_ant_l/activation	per_brev_l/activation	per_long_l/activation	per_tert_l/activation	ext_dig_l/activation	ext_hal_l/activation	ercspn_l/activation	intobl_l/activation	extobl_l/activation	glut_med1_r/activation	glut_med2_r/activation	glut_med3_r/activation	glut_min1_r/activation	glut_min2_r/activation	glut_min3_r/activation	semimem_r/activation	semiten_r/activation	bifemlh_r/activation	bifemsh_r/activation	sar_r/activation	add_long_r/activation	add_brev_r/activation	add_mag1_r/activation	add_mag2_r/activation	add_mag3_r/activation	tfl_r/activation	pect_r/activation	grac_r/activation	glut_max1_r/activation	glut_max2_r/activation	glut_max3_r/activation	iliacus_r/activation	psoas_r/activation	quad_fem_r/activation	gem_r/activation	peri_r/activation	rect_fem_r/activation	vas_med_r/activation	vas_int_r/activation	vas_lat_r/activation	med_gas_r/activation	lat_gas_r/activation	soleus_r/activation	tib_post_r/activation	flex_dig_r/activation	flex_hal_r/activation	tib_ant_r/activation	per_brev_r/activation	per_long_r/activation	per_tert_r/activation	ext_dig_r/activation	ext_hal_r/activation	ercspn_r/activation	intobl_r/activation	extobl_r/activation	
          0.56167414	         -2.93017651	          2.12727281	         -5.18944759	          0.70209267	          0.91911100	          0.00160253	         29.38300212	          3.48075759	         -2.15566107	        -17.11592397	         -1.12667021	          6.38506774	        -11.87810710	         -7.38480210	          5.69655861	         -1.18159981	         -4.62501909	          8.38856630	         -0.01483938	          3.09123021	         -0.87138457	         15.09307167	         -2.00928628	         -0.29802427	          2.01785170	         -4.43298270	        -13.45401914	          7.77973034	          5.21790707	        -13.45539671	         17.01957555	         15.75259443	         32.78966599	         86.51662706	         86.51662706	          0.05936104	          0.05936109	          0.05000008	          0.05936124	          0.05936122	          0.05000358	          0.11254289	          0.05936111	          0.21982348	          0.05000012	          0.05000020	          0.13591608	          0.30502249	          0.13054028	          0.14815118	          0.10644302	          0.05000005	          0.08366145	          0.09210611	          0.05000022	          0.11419759	          0.15267253	          0.05058348	          0.05000013	          0.16463780	          0.25909924	          0.13381153	          0.05470254	          0.13780014	          0.13560751	          0.12177695	          0.05000059	          0.05000013	          0.05293911	          0.05000000	          0.05000017	          0.05000009	          0.54750089	          0.26180658	          0.16852978	          0.25717369	          0.47108881	          0.22542543	          0.05936123	          0.11270634	          0.10290270	          0.26052120	          0.09933704	          0.07488211	          0.29275907	          0.19492312	          0.10942062	          0.05000042	          0.05000011	          0.05000007	          0.05992923	          0.10332710	          0.09448147	          0.05000215	          0.05000061	          0.05000101	          0.05000031	          0.30337039	          0.08317802	          0.05000139	          0.05000193	          0.05000128	          0.05000103	          0.40629888	          0.62928334	          0.05000064	          0.05000032	          0.05377616	          0.23429633	          0.05000234	          0.05000182	          0.05000142	          0.28862425	          0.39226268	          0.32160974	          0.28240216	          0.27490072	          0.36202297	          0.05000002	          0.05726371	          0.12040484	          0.05000013	          0.05000003	          0.05000012	          0.05000001	          0.05000004	          0.05000005	
          0.57290762	         -2.92713336	          2.21116412	         -5.47640991	          0.71900373	          0.91813709	          0.00141043	         28.73524820	          3.80497083	         -1.91771589	        -17.02150448	         -1.42084814	          6.18443396	        -12.04402806	         -9.23500221	          5.06431112	         -1.79245645	         -4.99844620	          9.31282695	          0.00177459	          2.52682912	         -0.86562929	         16.52307070	         -1.81049693	         -0.49484856	          2.08205691	         -5.31110429	        -13.45305078	          7.52706500	          4.93024258	        -13.46373823	         17.29521430	         15.38360458	         33.97741645	         86.51662706	         86.51662706	          0.05000000	          0.05000002	          0.10575164	          0.05000002	          0.05000003	          0.05000005	          0.09479500	          0.05000012	          0.18515747	          0.05000008	          0.05000350	          0.11448232	          0.25692104	          0.30536730	          0.20813911	          0.12104392	          0.05000038	          0.07047100	          0.12305309	          0.05131068	          0.10910089	          0.12859628	          0.05000006	          0.05000490	          0.40403157	          0.21823944	          0.11270955	          0.05936218	          0.14563231	          0.14660380	          0.12618574	          0.05000019	          0.05000249	          0.05000001	          0.05954422	          0.05000749	          0.05936169	          0.46169405	          0.26921729	          0.20190955	          0.21661761	          0.43498029	          0.18987601	          0.05000001	          0.09493262	          0.08667500	          0.21943718	          0.08367166	          0.06307326	          0.24659122	          0.16418388	          0.09216507	          0.05000147	          0.05000033	          0.05000039	          0.05047847	          0.08703260	          0.18237768	          0.05021172	          0.05936572	          0.05935655	          0.05936124	          0.25552912	          0.08725072	          0.05000675	          0.05000151	          0.05000102	          0.05000124	          0.34222581	          0.58465104	          0.05000044	          0.05936103	          0.05936126	          0.19734800	          0.13011996	          0.14759321	          0.14700404	          0.24310836	          0.33040308	          0.27187082	          0.24557525	          0.23154935	          0.30493268	          0.05000001	          0.05000006	          0.13302982	          0.05000006	          0.05000001	          0.05000009	          0.05577239	          0.05939658	          0.05867685	
          0.58414110	         -2.92037556	          2.29825005	         -5.73359802	          0.73619403	          0.91722703	          0.00123199	         27.97070448	          4.05264349	         -1.65719578	        -16.85830821	         -1.71468442	          5.97602966	        -12.52837719	        -11.18884876	          4.55043170	         -2.55369627	         -5.39029580	         10.19335310	         -0.13908503	          1.86325657	         -0.90207847	         17.95075794	         -1.59263093	         -0.70326354	          2.13515838	         -6.21681129	        -13.45840239	          7.32186356	          4.56688892	        -13.46992493	         17.49764332	         15.07263588	         35.14989617	         86.51662706	         86.51662706	          0.23093777	          0.23413252	          0.29549533	          0.33922502	          0.21726168	          0.20424727	          0.09013259	          0.05410677	          0.15598976	          0.08327874	          0.05000096	          0.09642855	          0.21640477	          0.25721110	          0.17531578	          0.11730819	          0.05000025	          0.05936067	          0.10364840	          0.05000063	          0.13695492	          0.10831684	          0.05263372	          0.05000026	          0.34031604	          0.18382327	          0.21734711	          0.05000081	          0.12266622	          0.12348451	          0.10628636	          0.05000050	          0.05000235	          0.05194641	          0.05015416	          0.05000023	          0.05000057	          0.54942366	          0.33247077	          0.17297401	          0.33275963	          0.50870996	          0.18423869	          0.06013475	          0.11755388	          0.07300640	          0.31964518	          0.07047670	          0.05312667	          0.30923364	          0.13829222	          0.07763072	          0.05000083	          0.05000012	          0.05000010	          0.05000009	          0.07330776	          0.15361689	          0.05000140	          0.05000393	          0.05000079	          0.05000050	          0.22672118	          0.07349205	          0.05000053	          0.05000172	          0.05000103	          0.05000067	          0.28825705	          0.55300145	          0.05000016	          0.05000047	          0.05000017	          0.16622636	          0.10960038	          0.12431809	          0.12382178	          0.20477030	          0.27829870	          0.22899694	          0.20684821	          0.19503423	          0.25684504	          0.05000000	          0.09228156	          0.15217519	          0.05000006	          0.05000002	          0.05000007	          0.05000011	          0.05002977	          0.05000002	
          0.59537459	         -2.91220004	          2.37866312	         -5.95583466	          0.75344708	          0.91640490	          0.00103245	         27.16091016	          4.28228288	         -1.39708564	        -16.59097967	         -1.99771122	          5.77531461	        -12.97959385	        -13.28344368	          4.07114503	         -3.49048841	         -5.78684723	         11.03259178	         -0.11496146	          1.16643123	         -0.87398511	         19.28062865	         -1.37922105	         -0.91345825	          2.17991361	         -7.10291955	        -13.46476720	          7.16542228	          4.16383478	        -13.48162394	         17.65220257	         14.79821580	         36.28845823	         86.51662706	         86.51662706	          0.32425393	          0.32532792	          0.35678440	          0.28572954	          0.18300010	          0.18843605	          0.07809621	          0.08705181	          0.13139035	          0.07014622	          0.05000035	          0.08122184	          0.18227789	          0.21664923	          0.16451471	          0.15962355	          0.05000016	          0.05000091	          0.08915965	          0.20650923	          0.18579059	          0.15614159	          0.05000004	          0.05000004	          0.28664842	          0.15483448	          0.18307180	          0.05000002	          0.12922273	          0.14969548	          0.10592630	          0.05000001	          0.05000002	          0.05000000	          0.05000000	          0.05000005	          0.05000005	          0.60516128	          0.29599259	          0.16322644	          0.56432644	          0.54421935	          0.29136100	          0.08080938	          0.09901571	          0.06149334	          0.30214900	          0.05936257	          0.05000006	          0.26046894	          0.11648366	          0.06538842	          0.05000147	          0.05000014	          0.05000012	          0.05000011	          0.06174730	          0.15611504	          0.05000137	          0.05000122	          0.05000178	          0.05000122	          0.19096786	          0.06190362	          0.05000070	          0.05000140	          0.05000090	          0.05000068	          0.24279909	          0.50714075	          0.05000014	          0.05000048	          0.05000011	          0.14001256	          0.12916681	          0.11978336	          0.11793067	          0.17247813	          0.23441115	          0.19288424	          0.17422838	          0.16427750	          0.21634077	          0.05000228	          0.09295332	          0.15536194	          0.05000028	          0.11341725	          0.05000047	          0.07754902	          0.05000000	          0.05000002	
